<?xml version="1.0" encoding="UTF-8" standalone="no"?>
<!-- Created with Inkscape (http://www.inkscape.org/) -->

<svg
   xmlns:dc="http://purl.org/dc/elements/1.1/"
   xmlns:cc="http://creativecommons.org/ns#"
   xmlns:rdf="http://www.w3.org/1999/02/22-rdf-syntax-ns#"
   xmlns:svg="http://www.w3.org/2000/svg"
   xmlns="http://www.w3.org/2000/svg"
   xmlns:xlink="http://www.w3.org/1999/xlink"
   xmlns:sodipodi="http://sodipodi.sourceforge.net/DTD/sodipodi-0.dtd"
   xmlns:inkscape="http://www.inkscape.org/namespaces/inkscape"
   width="744.09448819"
   height="1052.3622047"
   id="svg2"
   version="1.1"
   inkscape:version="0.48.0 r9654"
   sodipodi:docname="New document 1">
  <defs
     id="defs4" />
  <sodipodi:namedview
     id="base"
     pagecolor="#ffffff"
     bordercolor="#666666"
     borderopacity="1.0"
     inkscape:pageopacity="0.0"
     inkscape:pageshadow="2"
     inkscape:zoom="1.3152186"
     inkscape:cx="29.251111"
     inkscape:cy="526.18109"
     inkscape:document-units="px"
     inkscape:current-layer="layer2"
     showgrid="false"
     inkscape:window-width="1920"
     inkscape:window-height="1005"
     inkscape:window-x="0"
     inkscape:window-y="25"
     inkscape:window-maximized="1" />
  <metadata
     id="metadata7">
    <rdf:RDF>
      <cc:Work
         rdf:about="">
        <dc:format>image/svg+xml</dc:format>
        <dc:type
           rdf:resource="http://purl.org/dc/dcmitype/StillImage" />
        <dc:title></dc:title>
      </cc:Work>
    </rdf:RDF>
  </metadata>
  <g
     inkscape:label="Layer 1"
     inkscape:groupmode="layer"
     id="layer1"
     sodipodi:insensitive="true"
     style="display:none">
    <image
       y="72.362175"
       x="-320"
       id="image3063"
       xlink:href="file:///home/orde/data/web/futurama/xfuturama/web/Screenshot%20-%20091110%20-%2000:04:59.png"
       height="800"
       width="1280" />
  </g>
  <g
     inkscape:groupmode="layer"
     id="layer2"
     inkscape:label="Layer"
     style="display:inline">
    <path
       style="fill:#e8c645;fill-opacity:1;stroke:none"
       d="m 31.21585,580.64177 c -4.774482,2.07594 -8.326749,6.49176 -13.519616,7.8409 -4.629643,2.4211 -9.4931515,1.09362 -13.2344913,5.01343 -0.1847662,6.21916 2.9439005,13.13603 4.1818144,19.24584 5.6158319,19.34751 12.6019459,37.28794 27.0392309,51.82124 14.359775,10.87884 31.578227,14.2835 48.813892,17.93933 47.61175,8.78566 98.19357,11.36358 146.4008,15.01622 9.47874,14.33268 12.19924,32.38366 22.71486,46.19004 5.44617,6.22546 13.03001,6.26749 20.50137,7.51263 26.0631,2.06993 54.51832,0.5939 80.64626,1.04108 6.38387,-3.56733 9.08029,-8.02433 14.92147,-12.52169 6.24719,-14.84182 11.66099,-30.1932 17.13119,-45.38218 -0.72875,-4.65065 -7.2261,-4.1311 -10.58968,-6.26113 -9.4663,-3.35975 -18.78873,-7.52616 -28.32946,-10.42313 -2.75699,0.58872 -4.75024,3.41809 -8.00747,2.57063 -42.97152,0.23329 -85.96179,-0.26098 -128.92161,-1.38832 -38.02113,-1.57947 -76.68007,-4.31474 -112.672319,-17.15032 -22.804532,-8.26604 -45.030027,-23.4476 -54.388236,-46.70716 -4.897068,-10.57153 -6.652814,-22.25566 -9.955569,-33.31196 -0.694574,-0.7951 -1.674055,-1.21289 -2.732436,-1.04545 z"
       id="path3898"
       inkscape:connector-curvature="0"
       inkscape:export-filename="/home/orde/data/web/futurama/xfuturama/web/what-if-machine.png"
       inkscape:export-xdpi="90"
       inkscape:export-ydpi="90"
       sodipodi:nodetypes="cccccccccccccccccccc" />
    <path
       style="fill:#e8c645;fill-opacity:1;stroke:none"
       d="m 29.291265,373.99837 c -3.598706,5.01922 -6.474907,17.38394 -8.862595,23.07126 -11.599283,36.54976 -18.0297631,74.62595 -21.05163326,112.8377 1.39746792,4.96986 7.04696316,1.79091 10.88222126,3.1126 4.671767,0.62164 9.200912,1.94461 13.305773,4.22934 5.281775,-0.3638 2.541063,-7.22499 3.348913,-10.64445 0.222886,-41.60339 0.173885,-83.25916 3.327734,-124.76555 -0.07725,-1.90104 0.668797,-8.82574 -0.950413,-7.8409 z"
       id="path3900"
       inkscape:connector-curvature="0"
       inkscape:export-filename="/home/orde/data/web/futurama/xfuturama/web/what-if-machine.png"
       inkscape:export-xdpi="90"
       inkscape:export-ydpi="90"
       sodipodi:nodetypes="cccccccc" />
    <path
       style="fill:none;stroke:#000000;stroke-width:2;stroke-linecap:round;stroke-linejoin:round;stroke-miterlimit:4;stroke-opacity:1;stroke-dasharray:none;stroke-dashoffset:0"
       d="m 32.383647,364.72777 c -21.480486,50.26244 -33.07935411,113.50991 -34.5341851,179.03226 0,0 3.3453812,89.28182 38.8068191,122.58066 27.700074,22.54615 153.009749,27.95697 194.034099,31.18278 12.19642,21.50538 15.65633,43.5228 26.61038,49.46236 10.95406,5.93956 96.46266,5.37635 96.46266,5.37635"
       id="path3071"
       inkscape:connector-curvature="0"
       sodipodi:nodetypes="cccczc"
       inkscape:export-filename="/home/orde/data/web/futurama/xfuturama/web/what-if-machine.png"
       inkscape:export-xdpi="90"
       inkscape:export-ydpi="90" />
    <path
       style="fill:#ac632e;fill-opacity:1;stroke:none"
       d="m 348.99141,327.00748 -117.0908,1.52066 -66.90903,7.6033 -110.247829,22.8099 -19.768577,6.84297 -5.322309,161.95026 9.884288,59.30573 9.123959,32.69419 23.570226,23.57022 47.140452,22.8099 104.16519,9.12396 117.0908,1.52066 36.49584,1.52066 -16.72726,-11.40495 -35.7355,-2.28099 -134.57839,-4.56198 -41.81814,-6.08264 -41.05782,-8.36363 -21.289234,-13.68594 -14.446268,-28.89253 -11.793589,-59.2472 -4.032258,-81.18279 4.301076,-39.51613 5.822297,-39.40905 65.008206,-20.14874 64.62804,-14.0661 55.50408,-5.32231 71.09084,-2.66116 28.51237,1.52066 z"
       id="path3894"
       inkscape:connector-curvature="0"
       inkscape:export-filename="/home/orde/data/web/futurama/xfuturama/web/what-if-machine.png"
       inkscape:export-xdpi="90"
       inkscape:export-ydpi="90" />
    <path
       style="font-size:medium;font-style:normal;font-variant:normal;font-weight:normal;font-stretch:normal;text-indent:0;text-align:start;text-decoration:none;line-height:normal;letter-spacing:normal;word-spacing:normal;text-transform:none;direction:ltr;block-progression:tb;writing-mode:lr-tb;text-anchor:start;baseline-shift:baseline;color:#000000;fill:#b85a3e;fill-opacity:1;stroke:#000000;stroke-width:1.29999995;stroke-miterlimit:4;stroke-opacity:1;stroke-dasharray:none;marker:none;visibility:visible;display:inline;overflow:visible;enable-background:accumulate;font-family:Sans;-inkscape-font-specification:Sans"
       d="m 338.71875,337.5 c -104.96656,-0.34964 -200.06002,11.06258 -274.75,43.34375 l -2,0.875 -0.40625,2.125 c -9.592119,49.74823 -11.401048,104.46432 -7.0625,151.0625 4.338548,46.59818 14.277142,84.92053 30.625,103 4.5997,5.08691 11.926972,8.69147 21.28125,11.84375 9.35428,3.15228 20.79643,5.72005 33.625,7.875 25.65714,4.30991 56.81343,6.92333 87.03125,8.5 60.43563,3.15333 117.09375,2.15625 117.09375,2.15625 l -0.125,-8.1875 c 0,0 -56.44978,0.94736 -116.53125,-2.1875 -30.04073,-1.56743 -60.97706,-4.15588 -86.09375,-8.375 -12.55834,-2.10956 -23.66529,-4.62743 -32.375,-7.5625 -8.70971,-2.93507 -14.972313,-6.42147 -17.8125,-9.5625 C 77.807057,617.57396 66.951438,579.92183 62.6875,534.125 58.484727,488.98511 60.184345,435.81229 69.25,387.53125 141.96845,356.62974 235.28802,345.37433 338.6875,345.71875 L 338.7187,337.5 z"
       id="path3067"
       inkscape:connector-curvature="0"
       inkscape:export-filename="/home/orde/data/web/futurama/xfuturama/web/what-if-machine.png"
       inkscape:export-xdpi="90"
       inkscape:export-ydpi="90" />
    <path
       style="font-size:medium;font-style:normal;font-variant:normal;font-weight:normal;font-stretch:normal;text-indent:0;text-align:start;text-decoration:none;line-height:normal;letter-spacing:normal;word-spacing:normal;text-transform:none;direction:ltr;block-progression:tb;writing-mode:lr-tb;text-anchor:start;baseline-shift:baseline;color:#000000;fill:#eee088;fill-opacity:1;stroke:#000000;stroke-width:2;stroke-miterlimit:4;stroke-opacity:1;stroke-dasharray:none;marker:none;visibility:visible;display:inline;overflow:visible;enable-background:accumulate;font-family:Sans;-inkscape-font-specification:Sans"
       d="m 291.25,321.46875 c -56.38758,-0.39674 -138.10895,2.12668 -257.21875,39.53834 a 4.9004901,4.9522618 0 0 0 -3.4375,4.23174 c 0,0 -5.305961,54.2523 -5,114.85698 0.152981,30.30234 1.707929,62.1952 6.09375,89.90867 4.385821,27.71348 11.28718,51.29871 23.8125,65.27616 23.905447,26.67696 65.10883,37.48493 115.40625,42.28581 50.29742,4.80088 110.10209,3.40343 172.0625,3.88436 a 4.9004901,4.9522618 0 1 0 0.0937,-9.88458 c -62.15268,-0.48243 -121.85936,0.86154 -171.25,-3.85278 C 122.42186,662.99912 83.752408,652.0197 62.78125,628.61723 52.868268,617.55497 45.600594,595.35554 41.34375,568.45706 37.086906,541.55858 35.526423,510.02639 35.375,480.03265 35.086602,422.90694 39.668824,374.28988 40.125,369.50215 195.46162,321.26403 284.13729,333.25169 339.9375,331.5744 a 4.9087398,4.9605987 0 1 0 -0.3125,-9.91617 c -13.61182,0.40916 -29.57914,-0.0572 -48.375,-0.18948 z"
       id="path3069"
       inkscape:connector-curvature="0"
       inkscape:export-filename="/home/orde/data/web/futurama/xfuturama/web/what-if-machine.png"
       inkscape:export-xdpi="90"
       inkscape:export-ydpi="90" />
    <path
       sodipodi:type="arc"
       style="color:#000000;fill:#482112;fill-opacity:1;fill-rule:nonzero;stroke:none;stroke-width:7;marker:none;visibility:visible;display:inline;overflow:visible;enable-background:accumulate"
       id="path3892"
       sodipodi:cx="-54.743752"
       sodipodi:cy="520.51141"
       sodipodi:rx="34.214844"
       sodipodi:ry="34.595009"
       d="m -20.528908,520.51141 a 34.214844,34.595009 0 1 1 -68.429687,0 34.214844,34.595009 0 1 1 68.429687,0 z"
       transform="matrix(1.0444444,0,0,1.0769231,61.738785,-8.4856504)"
       inkscape:export-filename="/home/orde/data/web/futurama/xfuturama/web/what-if-machine.png"
       inkscape:export-xdpi="90"
       inkscape:export-ydpi="90" />
    <g
       id="g3920"
       transform="translate(-0.01760299,0)"
       style="stroke:#230707;stroke-width:2.4000001;stroke-linecap:square;stroke-miterlimit:4;stroke-opacity:1;stroke-dasharray:none"
       inkscape:export-filename="/home/orde/data/web/futurama/xfuturama/web/what-if-machine.png"
       inkscape:export-xdpi="90"
       inkscape:export-ydpi="90">
      <path
         inkscape:connector-curvature="0"
         id="path3902"
         d="m 4.847103,518.42053 0,66.90903"
         style="fill:none;stroke:#230707;stroke-width:2.4000001;stroke-linecap:square;stroke-miterlimit:4;stroke-opacity:1;stroke-dasharray:none" />
      <path
         inkscape:connector-curvature="0"
         id="path3904"
         d="m -1.7820224,519.18086 0,64.81812"
         style="fill:none;stroke:#230707;stroke-width:2.4000001;stroke-linecap:square;stroke-linejoin:round;stroke-miterlimit:4;stroke-opacity:1;stroke-dasharray:none;stroke-dashoffset:0" />
      <path
         inkscape:connector-curvature="0"
         id="path3906"
         d="m -8.4111487,522.0321 0,59.30573"
         style="fill:none;stroke:#230707;stroke-width:2.4000001;stroke-linecap:square;stroke-linejoin:round;stroke-miterlimit:4;stroke-opacity:1;stroke-dasharray:none;stroke-dashoffset:0" />
      <path
         inkscape:connector-curvature="0"
         id="path3908"
         d="m -15.040276,526.02383 0,51.32226"
         style="fill:none;stroke:#230707;stroke-width:2.4000001;stroke-linecap:square;stroke-linejoin:round;stroke-miterlimit:4;stroke-opacity:1;stroke-dasharray:none;stroke-dashoffset:0" />
      <path
         inkscape:connector-curvature="0"
         id="path3910"
         d="m -21.669401,533.43704 0,37.82642"
         style="fill:none;stroke:#230707;stroke-width:2.4000001;stroke-linecap:square;stroke-linejoin:round;stroke-miterlimit:4;stroke-opacity:1;stroke-dasharray:none;stroke-dashoffset:0" />
      <path
         inkscape:connector-curvature="0"
         id="path3912"
         d="m 11.476229,519.18086 0,65.0082"
         style="fill:none;stroke:#230707;stroke-width:2.4000001;stroke-linecap:square;stroke-linejoin:round;stroke-miterlimit:4;stroke-opacity:1;stroke-dasharray:none;stroke-dashoffset:0" />
      <path
         inkscape:connector-curvature="0"
         id="path3914"
         d="m 18.105355,521.65193 0,60.25614"
         style="fill:none;stroke:#230707;stroke-width:2.4000001;stroke-linecap:square;stroke-linejoin:round;stroke-miterlimit:4;stroke-opacity:1;stroke-dasharray:none;stroke-dashoffset:0" />
      <path
         inkscape:connector-curvature="0"
         id="path3916"
         d="m 24.734481,525.83375 0,52.27267"
         style="fill:none;stroke:#230707;stroke-width:2.4000001;stroke-linecap:square;stroke-linejoin:round;stroke-miterlimit:4;stroke-opacity:1;stroke-dasharray:none;stroke-dashoffset:0" />
      <path
         inkscape:connector-curvature="0"
         id="path3918"
         d="m 31.363607,532.67671 0,38.6877"
         style="fill:none;stroke:#230707;stroke-width:2.4000001;stroke-linecap:square;stroke-linejoin:round;stroke-miterlimit:4;stroke-opacity:1;stroke-dasharray:none;stroke-dashoffset:0" />
    </g>
    <path
       style="fill:none;stroke:#230707;stroke-width:2.4000001;stroke-linecap:butt;stroke-linejoin:round;stroke-miterlimit:4;stroke-opacity:1;stroke-dasharray:none;stroke-dashoffset:0"
       d="m -27.847082,551.82775 65.293328,0"
       id="path3931"
       inkscape:connector-curvature="0"
       inkscape:export-filename="/home/orde/data/web/futurama/xfuturama/web/what-if-machine.png"
       inkscape:export-xdpi="90"
       inkscape:export-ydpi="90" />
    <path
       style="font-size:medium;font-style:normal;font-variant:normal;font-weight:normal;font-stretch:normal;text-indent:0;text-align:start;text-decoration:none;line-height:normal;letter-spacing:normal;word-spacing:normal;text-transform:none;direction:ltr;block-progression:tb;writing-mode:lr-tb;text-anchor:start;baseline-shift:baseline;color:#000000;fill:#eee088;fill-opacity:1;fill-rule:nonzero;stroke:#000000;stroke-width:2;stroke-miterlimit:4;stroke-opacity:1;stroke-dasharray:none;marker:none;visibility:visible;display:inline;overflow:visible;enable-background:accumulate;font-family:Sans;-inkscape-font-specification:Sans"
       d="m 4.8430954,511.18104 c -21.7580534,0 -39.4821424,18.22517 -39.4821424,40.63271 0,22.40754 17.724089,40.66071 39.4821424,40.66071 21.7580536,0 39.4549516,-18.25317 39.4549516,-40.66071 0,-22.40754 -17.696898,-40.63271 -39.4549516,-40.63271 z m 0,7.08482 c 18.0302026,0 32.5754866,14.97947 32.5754866,33.54789 0,18.56842 -14.545284,33.54789 -32.5754866,33.54789 -18.0302034,0 -32.5754874,-14.97947 -32.5754874,-33.54789 0,-18.56842 14.545284,-33.54789 32.5754874,-33.54789 z"
       id="path3073"
       inkscape:connector-curvature="0"
       inkscape:export-filename="/home/orde/data/web/futurama/xfuturama/web/what-if-machine.png"
       inkscape:export-xdpi="90"
       inkscape:export-ydpi="90" />
    <path
       sodipodi:type="arc"
       style="color:#000000;fill:#d1750e;fill-opacity:1;fill-rule:nonzero;stroke:#000000;stroke-width:2.5;stroke-linecap:butt;stroke-linejoin:miter;stroke-miterlimit:4;stroke-opacity:1;stroke-dasharray:none;stroke-dashoffset:0;marker:none;visibility:visible;display:inline;overflow:visible;enable-background:accumulate"
       id="path3933"
       sodipodi:cx="284.36337"
       sodipodi:cy="717.81702"
       sodipodi:rx="24.330557"
       sodipodi:ry="24.330557"
       d="m 308.69393,717.81702 a 24.330557,24.330557 0 1 1 -48.66111,0 24.330557,24.330557 0 1 1 48.66111,0 z"
       transform="translate(-3.0413195,-0.76032987)"
       inkscape:export-filename="/home/orde/data/web/futurama/xfuturama/web/what-if-machine.png"
       inkscape:export-xdpi="90"
       inkscape:export-ydpi="90" />
  </g>
</svg>
